<mxfile host="Electron" agent="Mozilla/5.0 (Windows NT 10.0; Win64; x64) AppleWebKit/537.36 (KHTML, like Gecko) draw.io/26.0.7 Chrome/128.0.6613.186 Electron/32.2.5 Safari/537.36" version="26.0.7">
  <diagram name="Page-1" id="822b0af5-4adb-64df-f703-e8dfc1f81529">
    <mxGraphModel dx="2580" dy="2092" grid="1" gridSize="10" guides="1" tooltips="1" connect="1" arrows="1" fold="1" page="1" pageScale="1" pageWidth="1100" pageHeight="850" background="none" math="0" shadow="0">
      <root>
        <mxCell id="0" />
        <mxCell id="1" parent="0" />
        <mxCell id="aAT7dS_sUtaWbR4hFf62-11" value="" style="rounded=1;whiteSpace=wrap;html=1;" parent="1" vertex="1">
          <mxGeometry y="-321" width="1010" height="270" as="geometry" />
        </mxCell>
        <mxCell id="aAT7dS_sUtaWbR4hFf62-19" value="&lt;div&gt;&lt;br&gt;&lt;/div&gt;&lt;div&gt;&lt;br&gt;&lt;/div&gt;&lt;div&gt;&lt;br&gt;&lt;/div&gt;&lt;div&gt;&lt;br&gt;&lt;/div&gt;&lt;div&gt;&lt;br&gt;&lt;/div&gt;&lt;div&gt;&lt;br&gt;&lt;/div&gt;&lt;div&gt;&lt;br&gt;&lt;/div&gt;&lt;div&gt;&lt;br&gt;&lt;/div&gt;&lt;div&gt;&lt;br&gt;&lt;/div&gt;&lt;div&gt;&lt;br&gt;&lt;/div&gt;&lt;div&gt;&lt;br&gt;&lt;/div&gt;&lt;div&gt;&lt;span style=&quot;background-color: transparent; color: light-dark(rgb(0, 0, 0), rgb(255, 255, 255));&quot;&gt;&amp;nbsp; &amp;nbsp;&lt;/span&gt;&lt;span style=&quot;background-color: transparent; color: light-dark(rgb(0, 0, 0), rgb(255, 255, 255)); white-space: pre;&quot;&gt;&#x9;&lt;/span&gt;&lt;span style=&quot;background-color: transparent; color: light-dark(rgb(0, 0, 0), rgb(255, 255, 255)); white-space: pre;&quot;&gt;&#x9;&lt;/span&gt;&lt;span style=&quot;background-color: transparent; color: light-dark(rgb(0, 0, 0), rgb(255, 255, 255)); white-space: pre;&quot;&gt;&#x9;&lt;/span&gt;&lt;span style=&quot;background-color: transparent; color: light-dark(rgb(0, 0, 0), rgb(255, 255, 255)); white-space: pre;&quot;&gt;&#x9;&lt;/span&gt;&lt;font style=&quot;background-color: transparent; color: light-dark(rgb(0, 0, 0), rgb(255, 255, 255)); font-size: 14px;&quot;&gt;&lt;span style=&quot;white-space: pre;&quot;&gt;&#x9;&lt;/span&gt;&amp;nbsp; &amp;nbsp; &amp;nbsp; &amp;nbsp; &amp;nbsp; &amp;nbsp; &amp;nbsp; &amp;nbsp; &amp;nbsp; &amp;nbsp; &amp;nbsp; &amp;nbsp; &amp;nbsp; &amp;nbsp; &amp;nbsp; &amp;nbsp; &amp;nbsp; &amp;nbsp; &amp;nbsp; &amp;nbsp; &amp;nbsp; &amp;nbsp; &amp;nbsp; &amp;nbsp; &amp;nbsp; &amp;nbsp; &amp;nbsp;&amp;nbsp;&lt;/font&gt;&lt;font style=&quot;background-color: transparent; color: light-dark(rgb(0, 0, 0), rgb(255, 255, 255)); font-size: 16px;&quot;&gt;Afranio&lt;/font&gt;&lt;/div&gt;&lt;div&gt;&lt;/div&gt;&lt;div&gt;&lt;span style=&quot;font-size: medium; background-color: transparent; color: light-dark(rgb(0, 0, 0), rgb(255, 255, 255)); white-space: pre;&quot;&gt;&#x9;&lt;/span&gt;&lt;span style=&quot;font-size: medium; background-color: transparent; color: light-dark(rgb(0, 0, 0), rgb(255, 255, 255)); white-space: pre;&quot;&gt;&#x9;&lt;/span&gt;&lt;span style=&quot;font-size: medium; background-color: transparent; color: light-dark(rgb(0, 0, 0), rgb(255, 255, 255));&quot;&gt;&amp;nbsp; &amp;nbsp; &amp;nbsp;10.200.77.124&lt;/span&gt;&lt;/div&gt;" style="rounded=1;whiteSpace=wrap;html=1;" parent="1" vertex="1">
          <mxGeometry x="291" y="-307" width="209" height="240" as="geometry" />
        </mxCell>
        <mxCell id="7d933b09d9755ecc-9" value="" style="verticalLabelPosition=bottom;aspect=fixed;html=1;verticalAlign=top;strokeColor=none;shape=mxgraph.citrix.tower_server;rounded=0;shadow=0;comic=0;fontFamily=Verdana;" parent="1" vertex="1">
          <mxGeometry x="381" y="-271" width="99.41" height="130" as="geometry" />
        </mxCell>
        <mxCell id="7d933b09d9755ecc-26" value="" style="html=1;labelBackgroundColor=none;startArrow=none;startFill=0;endArrow=block;endFill=1;strokeColor=#FF0000;strokeWidth=1;fontFamily=Verdana;fontSize=12;curved=1;exitX=0.5;exitY=0;exitDx=0;exitDy=0;entryX=0.5;entryY=0;entryDx=0;entryDy=0;" parent="1" source="aAT7dS_sUtaWbR4hFf62-23" target="aAT7dS_sUtaWbR4hFf62-11" edge="1">
          <mxGeometry x="-0.0105" y="56" relative="1" as="geometry">
            <mxPoint x="1300" y="-261" as="sourcePoint" />
            <Array as="points">
              <mxPoint x="980" y="-731" />
            </Array>
            <mxPoint as="offset" />
            <mxPoint x="690" y="-331" as="targetPoint" />
          </mxGeometry>
        </mxCell>
        <mxCell id="aAT7dS_sUtaWbR4hFf62-12" value="&lt;font style=&quot;font-size: 18px;&quot;&gt;&lt;b&gt;IHS&amp;nbsp; &amp;nbsp; Homologação&lt;/b&gt;&lt;/font&gt;" style="rounded=1;whiteSpace=wrap;html=1;" parent="1" vertex="1">
          <mxGeometry x="60" y="-291" width="170" height="60" as="geometry" />
        </mxCell>
        <mxCell id="aAT7dS_sUtaWbR4hFf62-14" value="&lt;div&gt;&lt;font style=&quot;font-size: 14px;&quot;&gt;&lt;br&gt;&lt;/font&gt;&lt;/div&gt;&lt;font style=&quot;font-size: 14px;&quot;&gt;&lt;div&gt;&lt;font style=&quot;font-size: 14px;&quot;&gt;&lt;br&gt;&lt;/font&gt;&lt;/div&gt;1 Core&lt;/font&gt;&lt;div&gt;&lt;font size=&quot;3&quot;&gt;2GB RAM&lt;/font&gt;&lt;/div&gt;&lt;div&gt;&lt;font size=&quot;3&quot;&gt;SUSE Linux Enterprise Server 12 (x86_64)&lt;/font&gt;&lt;/div&gt;&lt;div&gt;&lt;br&gt;&lt;div&gt;&lt;br&gt;&lt;/div&gt;&lt;/div&gt;" style="rounded=1;whiteSpace=wrap;html=1;" parent="1" vertex="1">
          <mxGeometry x="71" y="-211" width="140" height="110" as="geometry" />
        </mxCell>
        <mxCell id="aAT7dS_sUtaWbR4hFf62-17" value="" style="curved=1;endArrow=classic;html=1;rounded=0;exitX=0.016;exitY=0.496;exitDx=0;exitDy=0;exitPerimeter=0;" parent="1" source="7d933b09d9755ecc-9" target="aAT7dS_sUtaWbR4hFf62-14" edge="1">
          <mxGeometry width="50" height="50" relative="1" as="geometry">
            <mxPoint x="321" y="-226" as="sourcePoint" />
            <mxPoint x="271" y="-176" as="targetPoint" />
            <Array as="points">
              <mxPoint x="271" y="-226" />
              <mxPoint x="321" y="-176" />
            </Array>
          </mxGeometry>
        </mxCell>
        <mxCell id="aAT7dS_sUtaWbR4hFf62-20" value="" style="html=1;labelBackgroundColor=none;startArrow=none;startFill=0;endArrow=block;endFill=1;strokeColor=#FF0000;strokeWidth=1;fontFamily=Verdana;fontSize=12;curved=1;exitX=0;exitY=0;exitDx=0;exitDy=0;" parent="1" source="aAT7dS_sUtaWbR4hFf62-21" edge="1">
          <mxGeometry x="-0.0105" y="56" relative="1" as="geometry">
            <mxPoint x="1570" y="-540" as="sourcePoint" />
            <Array as="points">
              <mxPoint x="1070" y="-970" />
            </Array>
            <mxPoint as="offset" />
            <mxPoint x="680" y="-320" as="targetPoint" />
          </mxGeometry>
        </mxCell>
        <mxCell id="aAT7dS_sUtaWbR4hFf62-21" value="" style="image;html=1;image=img/lib/clip_art/networking/Router_Icon_128x128.png" parent="1" vertex="1">
          <mxGeometry x="1529.9999999999995" y="-581" width="80" height="80" as="geometry" />
        </mxCell>
        <mxCell id="aAT7dS_sUtaWbR4hFf62-22" value="&lt;font style=&quot;font-size: 24px;&quot;&gt;&lt;b&gt;Delegacia Eletrônica&lt;/b&gt;&lt;/font&gt;&lt;div&gt;&lt;font size=&quot;3&quot;&gt;&lt;b&gt;SSP CIDADÃO | SSP RETAGUARDA&lt;/b&gt;&lt;/font&gt;&lt;/div&gt;" style="text;html=1;align=center;verticalAlign=middle;resizable=0;points=[];autosize=1;strokeColor=none;fillColor=none;" parent="1" vertex="1">
          <mxGeometry x="1233" y="-571" width="300" height="60" as="geometry" />
        </mxCell>
        <mxCell id="aAT7dS_sUtaWbR4hFf62-23" value="&lt;font style=&quot;font-size: 18px;&quot;&gt;&lt;b&gt;INTERNET&lt;/b&gt;&lt;/font&gt;" style="image;aspect=fixed;perimeter=ellipsePerimeter;html=1;align=center;shadow=0;dashed=0;spacingTop=3;image=img/lib/active_directory/internet_cloud.svg;" parent="1" vertex="1">
          <mxGeometry x="1510" y="-312.9" width="130" height="81.9" as="geometry" />
        </mxCell>
        <mxCell id="aAT7dS_sUtaWbR4hFf62-24" value="" style="rounded=1;whiteSpace=wrap;html=1;" parent="1" vertex="1">
          <mxGeometry y="159" width="1010" height="265" as="geometry" />
        </mxCell>
        <mxCell id="aAT7dS_sUtaWbR4hFf62-30" value="" style="endArrow=classic;html=1;rounded=0;entryX=1;entryY=0;entryDx=0;entryDy=0;exitX=0.5;exitY=1;exitDx=0;exitDy=0;" parent="1" source="aAT7dS_sUtaWbR4hFf62-11" target="XWSbF_imXP0iLrR8o-j1-2" edge="1">
          <mxGeometry relative="1" as="geometry">
            <mxPoint x="820" y="-51" as="sourcePoint" />
            <mxPoint x="980" y="-51" as="targetPoint" />
          </mxGeometry>
        </mxCell>
        <mxCell id="aAT7dS_sUtaWbR4hFf62-31" value="&lt;font style=&quot;font-size: 24px;&quot;&gt;&lt;font style=&quot;&quot;&gt;http /ht&lt;/font&gt;tps&lt;/font&gt;" style="edgeLabel;resizable=0;html=1;;align=center;verticalAlign=middle;rotation=90;" parent="aAT7dS_sUtaWbR4hFf62-30" connectable="0" vertex="1">
          <mxGeometry relative="1" as="geometry" />
        </mxCell>
        <mxCell id="aAT7dS_sUtaWbR4hFf62-32" value="Source" style="edgeLabel;resizable=0;html=1;;align=left;verticalAlign=bottom;" parent="aAT7dS_sUtaWbR4hFf62-30" connectable="0" vertex="1">
          <mxGeometry x="-1" relative="1" as="geometry">
            <mxPoint x="-409" as="offset" />
          </mxGeometry>
        </mxCell>
        <mxCell id="XWSbF_imXP0iLrR8o-j1-2" value="&lt;div&gt;&lt;br&gt;&lt;/div&gt;&lt;div&gt;&lt;br&gt;&lt;/div&gt;&lt;div&gt;&lt;br&gt;&lt;/div&gt;&lt;div&gt;&lt;br&gt;&lt;/div&gt;&lt;div&gt;&lt;br&gt;&lt;/div&gt;&lt;div&gt;&lt;br&gt;&lt;/div&gt;&lt;div&gt;&lt;br&gt;&lt;/div&gt;&lt;div&gt;&lt;br&gt;&lt;/div&gt;&lt;div&gt;&lt;br&gt;&lt;/div&gt;&lt;div&gt;&lt;br&gt;&lt;/div&gt;&lt;div&gt;&lt;br&gt;&lt;/div&gt;&lt;div&gt;&lt;span style=&quot;background-color: transparent; color: light-dark(rgb(0, 0, 0), rgb(255, 255, 255));&quot;&gt;&amp;nbsp; &amp;nbsp;&lt;/span&gt;&lt;span style=&quot;background-color: transparent; color: light-dark(rgb(0, 0, 0), rgb(255, 255, 255)); white-space: pre;&quot;&gt;&#x9;&lt;/span&gt;&lt;span style=&quot;background-color: transparent; color: light-dark(rgb(0, 0, 0), rgb(255, 255, 255)); white-space: pre;&quot;&gt;&#x9;&lt;/span&gt;&lt;span style=&quot;background-color: transparent; color: light-dark(rgb(0, 0, 0), rgb(255, 255, 255)); white-space: pre;&quot;&gt;&#x9;&lt;/span&gt;&lt;span style=&quot;background-color: transparent; color: light-dark(rgb(0, 0, 0), rgb(255, 255, 255)); white-space: pre;&quot;&gt;&#x9;&lt;/span&gt;&lt;font style=&quot;background-color: transparent; color: light-dark(rgb(0, 0, 0), rgb(255, 255, 255)); font-size: 14px;&quot;&gt;&lt;span style=&quot;white-space: pre;&quot;&gt;&#x9;&lt;/span&gt;&amp;nbsp; &amp;nbsp; &amp;nbsp; &amp;nbsp; &amp;nbsp; &amp;nbsp; &amp;nbsp; &amp;nbsp; &amp;nbsp; &amp;nbsp; &amp;nbsp; &amp;nbsp; &amp;nbsp; &amp;nbsp; &amp;nbsp; &amp;nbsp; &amp;nbsp; &amp;nbsp; &amp;nbsp; &amp;nbsp; &amp;nbsp; &amp;nbsp; &amp;nbsp; &amp;nbsp; &amp;nbsp; &amp;nbsp; &amp;nbsp; &amp;nbsp; &amp;nbsp; &amp;nbsp; &amp;nbsp; &amp;nbsp; &amp;nbsp; &amp;nbsp; &amp;nbsp; &amp;nbsp; &amp;nbsp; &amp;nbsp; &amp;nbsp; &amp;nbsp; &amp;nbsp; &amp;nbsp; &amp;nbsp; &amp;nbsp; &amp;nbsp; &amp;nbsp; &amp;nbsp; &amp;nbsp; &amp;nbsp;&amp;nbsp;&lt;/font&gt;&lt;font style=&quot;background-color: transparent; color: light-dark(rgb(0, 0, 0), rgb(255, 255, 255)); font-size: 16px;&quot;&gt;caetes-ws1&lt;/font&gt;&lt;br&gt;&lt;/div&gt;&lt;div&gt;&lt;/div&gt;&lt;div&gt;&lt;span style=&quot;font-size: medium; background-color: transparent; color: light-dark(rgb(0, 0, 0), rgb(255, 255, 255)); white-space: pre;&quot;&gt;&#x9;&lt;/span&gt;&lt;span style=&quot;font-size: medium; background-color: transparent; color: light-dark(rgb(0, 0, 0), rgb(255, 255, 255)); white-space: pre;&quot;&gt;&#x9;&lt;/span&gt;&lt;span style=&quot;font-size: medium; background-color: transparent; color: light-dark(rgb(0, 0, 0), rgb(255, 255, 255));&quot;&gt;&amp;nbsp; &amp;nbsp; &amp;nbsp;10.200.77.125&lt;/span&gt;&lt;/div&gt;" style="rounded=1;whiteSpace=wrap;html=1;" parent="1" vertex="1">
          <mxGeometry x="291" y="169" width="209" height="240" as="geometry" />
        </mxCell>
        <mxCell id="XWSbF_imXP0iLrR8o-j1-3" value="" style="verticalLabelPosition=bottom;aspect=fixed;html=1;verticalAlign=top;strokeColor=none;shape=mxgraph.citrix.tower_server;rounded=0;shadow=0;comic=0;fontFamily=Verdana;" parent="1" vertex="1">
          <mxGeometry x="381" y="205" width="99.41" height="130" as="geometry" />
        </mxCell>
        <mxCell id="XWSbF_imXP0iLrR8o-j1-4" value="&lt;font style=&quot;font-size: 18px;&quot;&gt;&lt;b&gt;DMGR&lt;/b&gt;&lt;/font&gt;&lt;div&gt;&lt;font style=&quot;font-size: 18px;&quot;&gt;&lt;b&gt;Homologação&lt;/b&gt;&lt;/font&gt;&lt;/div&gt;" style="rounded=1;whiteSpace=wrap;html=1;" parent="1" vertex="1">
          <mxGeometry x="60" y="185" width="170" height="60" as="geometry" />
        </mxCell>
        <mxCell id="XWSbF_imXP0iLrR8o-j1-5" value="&lt;div&gt;&lt;font style=&quot;font-size: 14px;&quot;&gt;&lt;br&gt;&lt;/font&gt;&lt;/div&gt;&lt;font style=&quot;font-size: 14px;&quot;&gt;&lt;div&gt;&lt;font style=&quot;font-size: 14px;&quot;&gt;&lt;br&gt;&lt;/font&gt;&lt;/div&gt;2 Core&lt;/font&gt;&lt;div&gt;&lt;font size=&quot;3&quot;&gt;4GB RAM&lt;/font&gt;&lt;/div&gt;&lt;div&gt;&lt;font size=&quot;3&quot;&gt;SUSE Linux Enterprise Server 12 (x86_64)&lt;/font&gt;&lt;/div&gt;&lt;div&gt;&lt;br&gt;&lt;div&gt;&lt;br&gt;&lt;/div&gt;&lt;/div&gt;" style="rounded=1;whiteSpace=wrap;html=1;" parent="1" vertex="1">
          <mxGeometry x="71" y="265" width="140" height="110" as="geometry" />
        </mxCell>
        <mxCell id="XWSbF_imXP0iLrR8o-j1-6" value="" style="curved=1;endArrow=classic;html=1;rounded=0;exitX=0.016;exitY=0.496;exitDx=0;exitDy=0;exitPerimeter=0;" parent="1" source="XWSbF_imXP0iLrR8o-j1-3" target="XWSbF_imXP0iLrR8o-j1-5" edge="1">
          <mxGeometry width="50" height="50" relative="1" as="geometry">
            <mxPoint x="321" y="250" as="sourcePoint" />
            <mxPoint x="271" y="300" as="targetPoint" />
            <Array as="points">
              <mxPoint x="271" y="250" />
              <mxPoint x="321" y="300" />
            </Array>
          </mxGeometry>
        </mxCell>
        <mxCell id="XWSbF_imXP0iLrR8o-j1-7" value="Source" style="edgeLabel;resizable=0;html=1;;align=left;verticalAlign=bottom;" parent="1" connectable="0" vertex="1">
          <mxGeometry x="271" y="425" as="geometry" />
        </mxCell>
        <mxCell id="XWSbF_imXP0iLrR8o-j1-8" value="" style="outlineConnect=0;dashed=0;verticalLabelPosition=bottom;verticalAlign=top;align=center;html=1;shape=mxgraph.aws3.http_protocol;fillColor=#5294CF;gradientColor=none;" parent="1" vertex="1">
          <mxGeometry x="1530" y="-150" width="63" height="66" as="geometry" />
        </mxCell>
        <mxCell id="XWSbF_imXP0iLrR8o-j1-9" value="&lt;a href=&quot;https://10.200.77.125:9043/ibm/console/login.do?action=secure&quot;&gt;&lt;font style=&quot;font-size: 20px;&quot;&gt;&lt;b&gt;Console Websphere&lt;/b&gt;&lt;/font&gt;&lt;/a&gt;&lt;div&gt;&lt;a href=&quot;https://10.200.77.125:9043/ibm/console/login.do?action=secure&quot;&gt;&lt;font style=&quot;font-size: 20px;&quot;&gt;&lt;b&gt;&amp;nbsp;Delegacia Eletrônica&lt;/b&gt;&lt;/font&gt;&lt;/a&gt;&lt;/div&gt;" style="text;html=1;align=center;verticalAlign=middle;resizable=0;points=[];autosize=1;strokeColor=none;fillColor=none;" parent="1" vertex="1">
          <mxGeometry x="1460" y="-84" width="220" height="60" as="geometry" />
        </mxCell>
        <mxCell id="XWSbF_imXP0iLrR8o-j1-14" value="" style="curved=1;endArrow=classic;html=1;rounded=0;exitX=0;exitY=0.5;exitDx=0;exitDy=0;exitPerimeter=0;entryX=0.668;entryY=0;entryDx=0;entryDy=0;entryPerimeter=0;" parent="1" source="XWSbF_imXP0iLrR8o-j1-8" target="aAT7dS_sUtaWbR4hFf62-24" edge="1">
          <mxGeometry width="50" height="50" relative="1" as="geometry">
            <mxPoint x="1020" y="40" as="sourcePoint" />
            <mxPoint x="680" y="160" as="targetPoint" />
            <Array as="points">
              <mxPoint x="740" y="-20" />
              <mxPoint x="1030" y="90" />
            </Array>
          </mxGeometry>
        </mxCell>
        <mxCell id="XWSbF_imXP0iLrR8o-j1-15" value="" style="rounded=1;whiteSpace=wrap;html=1;" parent="1" vertex="1">
          <mxGeometry x="1630" y="579" width="520" height="270" as="geometry" />
        </mxCell>
        <mxCell id="XWSbF_imXP0iLrR8o-j1-16" value="&lt;div&gt;&lt;br&gt;&lt;/div&gt;&lt;div&gt;&lt;br&gt;&lt;/div&gt;&lt;div&gt;&lt;br&gt;&lt;/div&gt;&lt;div&gt;&lt;br&gt;&lt;/div&gt;&lt;div&gt;&lt;br&gt;&lt;/div&gt;&lt;div&gt;&lt;br&gt;&lt;/div&gt;&lt;div&gt;&lt;br&gt;&lt;/div&gt;&lt;div&gt;&lt;br&gt;&lt;/div&gt;&lt;div&gt;&lt;br&gt;&lt;/div&gt;&lt;div&gt;&lt;div&gt;&lt;font style=&quot;background-color: transparent; color: light-dark(rgb(0, 0, 0), rgb(255, 255, 255)); font-size: 16px;&quot;&gt;&amp;nbsp; &amp;nbsp; &amp;nbsp; &amp;nbsp; &amp;nbsp; &amp;nbsp; &amp;nbsp; &amp;nbsp; &amp;nbsp; &amp;nbsp; &amp;nbsp; &amp;nbsp; &amp;nbsp; &amp;nbsp; &amp;nbsp; &amp;nbsp;&amp;nbsp;&lt;/font&gt;&lt;/div&gt;&lt;div&gt;&lt;font style=&quot;background-color: transparent; color: light-dark(rgb(0, 0, 0), rgb(255, 255, 255)); font-size: 16px;&quot;&gt;&amp;nbsp; &amp;nbsp; &amp;nbsp; &amp;nbsp; &amp;nbsp; &amp;nbsp; &amp;nbsp; &amp;nbsp; &amp;nbsp; &amp;nbsp; &amp;nbsp; &amp;nbsp; &amp;nbsp; &amp;nbsp; &amp;nbsp; &amp;nbsp; &amp;nbsp; &amp;nbsp; &amp;nbsp; &amp;nbsp; &amp;nbsp; &amp;nbsp; &amp;nbsp; &amp;nbsp; &amp;nbsp;&lt;/font&gt;&lt;/div&gt;&lt;div&gt;&lt;font style=&quot;background-color: transparent; color: light-dark(rgb(0, 0, 0), rgb(255, 255, 255)); font-size: 16px;&quot;&gt;&amp;nbsp; &amp;nbsp; &amp;nbsp; &amp;nbsp; &amp;nbsp; &amp;nbsp; &amp;nbsp; &amp;nbsp; &amp;nbsp; &amp;nbsp; &amp;nbsp; &amp;nbsp; &amp;nbsp; &amp;nbsp; &amp;nbsp; &amp;nbsp; &amp;nbsp; &amp;nbsp; &amp;nbsp; &amp;nbsp; &amp;nbsp; &amp;nbsp; &amp;nbsp; &amp;nbsp; &amp;nbsp; &amp;nbsp; &amp;nbsp; &amp;nbsp; &amp;nbsp; &amp;nbsp; &amp;nbsp; &amp;nbsp; &amp;nbsp; &amp;nbsp; &amp;nbsp; &amp;nbsp; &amp;nbsp;goioere&lt;/font&gt;&lt;/div&gt;&lt;div&gt;&lt;font style=&quot;background-color: transparent; color: light-dark(rgb(0, 0, 0), rgb(255, 255, 255)); font-size: 16px;&quot;&gt;&amp;nbsp; &amp;nbsp; &amp;nbsp; &amp;nbsp; &amp;nbsp; &amp;nbsp; &amp;nbsp; &amp;nbsp; &amp;nbsp; &amp;nbsp;10.200.85.137&lt;/font&gt;&lt;br&gt;&lt;/div&gt;&lt;/div&gt;" style="rounded=1;whiteSpace=wrap;html=1;" parent="1" vertex="1">
          <mxGeometry x="1910" y="593" width="200" height="240" as="geometry" />
        </mxCell>
        <mxCell id="XWSbF_imXP0iLrR8o-j1-17" value="" style="verticalLabelPosition=bottom;aspect=fixed;html=1;verticalAlign=top;strokeColor=none;shape=mxgraph.citrix.tower_server;rounded=0;shadow=0;comic=0;fontFamily=Verdana;" parent="1" vertex="1">
          <mxGeometry x="2000" y="629" width="99.41" height="130" as="geometry" />
        </mxCell>
        <mxCell id="XWSbF_imXP0iLrR8o-j1-18" value="&lt;font style=&quot;font-size: 18px;&quot;&gt;&lt;b&gt;Database SQL Civil | Criminal | Veiculo&lt;/b&gt;&lt;/font&gt;" style="rounded=1;whiteSpace=wrap;html=1;" parent="1" vertex="1">
          <mxGeometry x="1679" y="609" width="170" height="60" as="geometry" />
        </mxCell>
        <mxCell id="XWSbF_imXP0iLrR8o-j1-19" value="&lt;div&gt;&lt;font style=&quot;font-size: 14px;&quot;&gt;&lt;br&gt;&lt;/font&gt;&lt;/div&gt;&lt;font style=&quot;font-size: 14px;&quot;&gt;&lt;div&gt;&lt;font style=&quot;font-size: 14px;&quot;&gt;&lt;br&gt;&lt;/font&gt;&lt;/div&gt;2 Core&lt;/font&gt;&lt;div&gt;&lt;font size=&quot;3&quot;&gt;8GB RAM&lt;/font&gt;&lt;/div&gt;&lt;div&gt;&lt;font size=&quot;3&quot;&gt;SQL Server 2019 Standard&amp;nbsp;&lt;/font&gt;&lt;/div&gt;&lt;div&gt;&lt;br&gt;&lt;div&gt;&lt;br&gt;&lt;/div&gt;&lt;/div&gt;" style="rounded=1;whiteSpace=wrap;html=1;" parent="1" vertex="1">
          <mxGeometry x="1690" y="689" width="140" height="110" as="geometry" />
        </mxCell>
        <mxCell id="XWSbF_imXP0iLrR8o-j1-20" value="" style="curved=1;endArrow=classic;html=1;rounded=0;exitX=0.016;exitY=0.496;exitDx=0;exitDy=0;exitPerimeter=0;" parent="1" source="XWSbF_imXP0iLrR8o-j1-17" target="XWSbF_imXP0iLrR8o-j1-19" edge="1">
          <mxGeometry width="50" height="50" relative="1" as="geometry">
            <mxPoint x="1940" y="674" as="sourcePoint" />
            <mxPoint x="1890" y="724" as="targetPoint" />
            <Array as="points">
              <mxPoint x="1890" y="674" />
              <mxPoint x="1940" y="724" />
            </Array>
          </mxGeometry>
        </mxCell>
        <mxCell id="XWSbF_imXP0iLrR8o-j1-21" value="Source" style="edgeLabel;resizable=0;html=1;;align=left;verticalAlign=bottom;" parent="1" connectable="0" vertex="1">
          <mxGeometry x="1890" y="849" as="geometry" />
        </mxCell>
        <mxCell id="XWSbF_imXP0iLrR8o-j1-30" value="" style="rounded=1;whiteSpace=wrap;html=1;" parent="1" vertex="1">
          <mxGeometry x="1630" y="159" width="520" height="270" as="geometry" />
        </mxCell>
        <mxCell id="XWSbF_imXP0iLrR8o-j1-31" value="&lt;div&gt;&lt;br&gt;&lt;/div&gt;&lt;div&gt;&lt;br&gt;&lt;/div&gt;&lt;div&gt;&lt;br&gt;&lt;/div&gt;&lt;div&gt;&lt;br&gt;&lt;/div&gt;&lt;div&gt;&lt;br&gt;&lt;/div&gt;&lt;div&gt;&lt;br&gt;&lt;/div&gt;&lt;div&gt;&lt;br&gt;&lt;/div&gt;&lt;div&gt;&lt;br&gt;&lt;/div&gt;&lt;div&gt;&lt;br&gt;&lt;/div&gt;&lt;div&gt;&lt;div&gt;&lt;font style=&quot;background-color: transparent; color: light-dark(rgb(0, 0, 0), rgb(255, 255, 255)); font-size: 16px;&quot;&gt;&amp;nbsp; &amp;nbsp; &amp;nbsp; &amp;nbsp; &amp;nbsp; &amp;nbsp; &amp;nbsp; &amp;nbsp; &amp;nbsp; &amp;nbsp; &amp;nbsp; &amp;nbsp; &amp;nbsp; &amp;nbsp; &amp;nbsp; &amp;nbsp;&amp;nbsp;&lt;/font&gt;&lt;/div&gt;&lt;div&gt;&lt;font style=&quot;background-color: transparent; color: light-dark(rgb(0, 0, 0), rgb(255, 255, 255)); font-size: 16px;&quot;&gt;&amp;nbsp; &amp;nbsp; &amp;nbsp; &amp;nbsp; &amp;nbsp; &amp;nbsp; &amp;nbsp; &amp;nbsp; &amp;nbsp; &amp;nbsp; &amp;nbsp; &amp;nbsp; &amp;nbsp; &amp;nbsp; &amp;nbsp; &amp;nbsp; &amp;nbsp; &amp;nbsp; &amp;nbsp; &amp;nbsp; &amp;nbsp; &amp;nbsp; &amp;nbsp; &amp;nbsp; &amp;nbsp;&lt;/font&gt;&lt;/div&gt;&lt;div&gt;&lt;font style=&quot;background-color: transparent; color: light-dark(rgb(0, 0, 0), rgb(255, 255, 255)); font-size: 16px;&quot;&gt;&amp;nbsp; &amp;nbsp; &amp;nbsp; &amp;nbsp; &amp;nbsp; &amp;nbsp; &amp;nbsp; &amp;nbsp; &amp;nbsp; &amp;nbsp; &amp;nbsp; &amp;nbsp; &amp;nbsp; &amp;nbsp;lagoareal&amp;nbsp; &amp;nbsp; &amp;nbsp; &amp;nbsp; &amp;nbsp; &amp;nbsp; &amp;nbsp; &amp;nbsp; &amp;nbsp; &amp;nbsp; &amp;nbsp; &amp;nbsp; &amp;nbsp;&lt;/font&gt;&lt;span style=&quot;background-color: transparent; color: light-dark(rgb(0, 0, 0), rgb(255, 255, 255)); font-size: medium;&quot;&gt;10.200.77.80&lt;/span&gt;&lt;br&gt;&lt;/div&gt;&lt;/div&gt;" style="rounded=1;whiteSpace=wrap;html=1;" parent="1" vertex="1">
          <mxGeometry x="1910" y="173" width="200" height="240" as="geometry" />
        </mxCell>
        <mxCell id="XWSbF_imXP0iLrR8o-j1-32" value="" style="verticalLabelPosition=bottom;aspect=fixed;html=1;verticalAlign=top;strokeColor=none;shape=mxgraph.citrix.tower_server;rounded=0;shadow=0;comic=0;fontFamily=Verdana;" parent="1" vertex="1">
          <mxGeometry x="2000" y="209" width="99.41" height="130" as="geometry" />
        </mxCell>
        <mxCell id="XWSbF_imXP0iLrR8o-j1-33" value="&lt;font style=&quot;font-size: 18px;&quot;&gt;&lt;b&gt;IIB | MQ Broker&lt;/b&gt;&lt;/font&gt;" style="rounded=1;whiteSpace=wrap;html=1;" parent="1" vertex="1">
          <mxGeometry x="1679" y="189" width="170" height="60" as="geometry" />
        </mxCell>
        <mxCell id="XWSbF_imXP0iLrR8o-j1-34" value="&lt;div&gt;&lt;font style=&quot;font-size: 14px;&quot;&gt;&lt;br&gt;&lt;/font&gt;&lt;/div&gt;&lt;font style=&quot;font-size: 14px;&quot;&gt;&lt;div&gt;&lt;font style=&quot;font-size: 14px;&quot;&gt;&lt;br&gt;&lt;/font&gt;&lt;/div&gt;2 Core&lt;/font&gt;&lt;div&gt;&lt;font size=&quot;3&quot;&gt;4GB RAM&lt;/font&gt;&lt;/div&gt;&lt;div&gt;&lt;font size=&quot;3&quot;&gt;SUSE Linux Enterprise Server 11 (x86_64)&lt;/font&gt;&lt;br&gt;&lt;/div&gt;&lt;div&gt;&lt;div&gt;&lt;br&gt;&lt;/div&gt;&lt;/div&gt;" style="rounded=1;whiteSpace=wrap;html=1;" parent="1" vertex="1">
          <mxGeometry x="1690" y="269" width="140" height="110" as="geometry" />
        </mxCell>
        <mxCell id="XWSbF_imXP0iLrR8o-j1-35" value="" style="curved=1;endArrow=classic;html=1;rounded=0;exitX=0.016;exitY=0.496;exitDx=0;exitDy=0;exitPerimeter=0;" parent="1" source="XWSbF_imXP0iLrR8o-j1-32" target="XWSbF_imXP0iLrR8o-j1-34" edge="1">
          <mxGeometry width="50" height="50" relative="1" as="geometry">
            <mxPoint x="1940" y="254" as="sourcePoint" />
            <mxPoint x="1890" y="304" as="targetPoint" />
            <Array as="points">
              <mxPoint x="1890" y="254" />
              <mxPoint x="1940" y="304" />
            </Array>
          </mxGeometry>
        </mxCell>
        <mxCell id="XWSbF_imXP0iLrR8o-j1-36" value="Source" style="edgeLabel;resizable=0;html=1;;align=left;verticalAlign=bottom;" parent="1" connectable="0" vertex="1">
          <mxGeometry x="1890" y="429" as="geometry" />
        </mxCell>
        <mxCell id="XWSbF_imXP0iLrR8o-j1-38" value="" style="endArrow=classic;html=1;rounded=0;exitX=1;exitY=0.5;exitDx=0;exitDy=0;entryX=0;entryY=0.5;entryDx=0;entryDy=0;" parent="1" source="aAT7dS_sUtaWbR4hFf62-24" target="XWSbF_imXP0iLrR8o-j1-30" edge="1">
          <mxGeometry width="50" height="50" relative="1" as="geometry">
            <mxPoint x="1020" y="302" as="sourcePoint" />
            <mxPoint x="1410" y="299" as="targetPoint" />
          </mxGeometry>
        </mxCell>
        <mxCell id="XWSbF_imXP0iLrR8o-j1-39" value="&lt;div&gt;&lt;font style=&quot;&quot;&gt;&lt;span style=&quot;font-size: 24px;&quot;&gt;DataFlowEngine&lt;/span&gt;&lt;br&gt;&lt;/font&gt;&lt;/div&gt;" style="edgeLabel;html=1;align=center;verticalAlign=middle;resizable=0;points=[];rotation=0;" parent="XWSbF_imXP0iLrR8o-j1-38" vertex="1" connectable="0">
          <mxGeometry x="-0.1351" y="-1" relative="1" as="geometry">
            <mxPoint x="44" y="-5" as="offset" />
          </mxGeometry>
        </mxCell>
        <mxCell id="wu-KXamo82yyalRBKZPA-1" value="&lt;b style=&quot;forced-color-adjust: none; color: rgb(0, 0, 0); font-family: Helvetica; font-size: medium; font-style: normal; font-variant-ligatures: normal; font-variant-caps: normal; letter-spacing: normal; orphans: 2; text-align: center; text-indent: 0px; text-transform: none; widows: 2; word-spacing: 0px; -webkit-text-stroke-width: 0px; white-space: nowrap; background-color: rgb(251, 251, 251); text-decoration-thickness: initial; text-decoration-style: initial; text-decoration-color: initial;&quot;&gt;VIP: 10.200.77.124&lt;/b&gt;" style="text;whiteSpace=wrap;html=1;rotation=0;" parent="1" vertex="1">
          <mxGeometry x="1104" y="-739" width="140" height="30" as="geometry" />
        </mxCell>
        <mxCell id="wu-KXamo82yyalRBKZPA-4" value="&lt;div&gt;&lt;br&gt;&lt;/div&gt;&lt;div&gt;&lt;br&gt;&lt;/div&gt;&lt;div&gt;&lt;br&gt;&lt;/div&gt;&lt;div&gt;&lt;br&gt;&lt;/div&gt;&lt;div&gt;&lt;br&gt;&lt;/div&gt;&lt;div&gt;&lt;br&gt;&lt;/div&gt;&lt;div&gt;&lt;br&gt;&lt;/div&gt;&lt;div&gt;&lt;br&gt;&lt;/div&gt;&lt;div&gt;&lt;br&gt;&lt;/div&gt;&lt;div&gt;&lt;br&gt;&lt;/div&gt;&lt;div&gt;&lt;br&gt;&lt;/div&gt;&lt;div&gt;&lt;span style=&quot;background-color: transparent; color: light-dark(rgb(0, 0, 0), rgb(255, 255, 255));&quot;&gt;&amp;nbsp; &amp;nbsp;&lt;/span&gt;&lt;span style=&quot;background-color: transparent; color: light-dark(rgb(0, 0, 0), rgb(255, 255, 255)); white-space: pre;&quot;&gt;&#x9;&lt;/span&gt;&lt;span style=&quot;background-color: transparent; color: light-dark(rgb(0, 0, 0), rgb(255, 255, 255)); white-space: pre;&quot;&gt;&#x9;&lt;/span&gt;&lt;span style=&quot;background-color: transparent; color: light-dark(rgb(0, 0, 0), rgb(255, 255, 255)); white-space: pre;&quot;&gt;&#x9;&lt;/span&gt;&lt;span style=&quot;background-color: transparent; color: light-dark(rgb(0, 0, 0), rgb(255, 255, 255)); white-space: pre;&quot;&gt;&#x9;&lt;/span&gt;&lt;font style=&quot;background-color: transparent; color: light-dark(rgb(0, 0, 0), rgb(255, 255, 255)); font-size: 14px;&quot;&gt;&lt;span style=&quot;white-space: pre;&quot;&gt;&#x9;&lt;/span&gt;&amp;nbsp; &amp;nbsp; &amp;nbsp; &amp;nbsp; &amp;nbsp; &amp;nbsp; &amp;nbsp; &amp;nbsp; &amp;nbsp; &amp;nbsp; &amp;nbsp; &amp;nbsp; &amp;nbsp; &amp;nbsp; &amp;nbsp; &amp;nbsp; &amp;nbsp; &amp;nbsp; &amp;nbsp; &amp;nbsp; &amp;nbsp; &amp;nbsp; &amp;nbsp; &amp;nbsp; &amp;nbsp; &amp;nbsp; &amp;nbsp; &amp;nbsp; &amp;nbsp; &amp;nbsp; &amp;nbsp; &amp;nbsp; &amp;nbsp; &amp;nbsp; &amp;nbsp; &amp;nbsp; &amp;nbsp; &amp;nbsp; &amp;nbsp; &amp;nbsp; &amp;nbsp; &amp;nbsp; &amp;nbsp; &amp;nbsp; &amp;nbsp; &amp;nbsp; &amp;nbsp; &amp;nbsp; &amp;nbsp;&amp;nbsp;&lt;/font&gt;&lt;font style=&quot;background-color: transparent; color: light-dark(rgb(0, 0, 0), rgb(255, 255, 255)); font-size: 16px;&quot;&gt;caetes-ws2&lt;/font&gt;&lt;br&gt;&lt;/div&gt;&lt;div&gt;&lt;/div&gt;&lt;div&gt;&lt;span style=&quot;font-size: medium; background-color: transparent; color: light-dark(rgb(0, 0, 0), rgb(255, 255, 255)); white-space: pre;&quot;&gt;&#x9;&lt;/span&gt;&lt;span style=&quot;font-size: medium; background-color: transparent; color: light-dark(rgb(0, 0, 0), rgb(255, 255, 255)); white-space: pre;&quot;&gt;&#x9;&lt;/span&gt;&lt;span style=&quot;font-size: medium; background-color: transparent; color: light-dark(rgb(0, 0, 0), rgb(255, 255, 255));&quot;&gt;&amp;nbsp; &amp;nbsp; &amp;nbsp;10.200.77.126&lt;/span&gt;&lt;/div&gt;" style="rounded=1;whiteSpace=wrap;html=1;" parent="1" vertex="1">
          <mxGeometry x="761" y="169" width="209" height="240" as="geometry" />
        </mxCell>
        <mxCell id="wu-KXamo82yyalRBKZPA-5" value="" style="verticalLabelPosition=bottom;aspect=fixed;html=1;verticalAlign=top;strokeColor=none;shape=mxgraph.citrix.tower_server;rounded=0;shadow=0;comic=0;fontFamily=Verdana;" parent="1" vertex="1">
          <mxGeometry x="851" y="205" width="99.41" height="130" as="geometry" />
        </mxCell>
        <mxCell id="wu-KXamo82yyalRBKZPA-6" value="&lt;div&gt;&lt;font style=&quot;font-size: 18px;&quot;&gt;&lt;b&gt;NODE&lt;/b&gt;&lt;/font&gt;&lt;/div&gt;&lt;div&gt;&lt;font style=&quot;font-size: 18px;&quot;&gt;&lt;b&gt;Homologação&lt;/b&gt;&lt;/font&gt;&lt;/div&gt;" style="rounded=1;whiteSpace=wrap;html=1;" parent="1" vertex="1">
          <mxGeometry x="530" y="185" width="170" height="60" as="geometry" />
        </mxCell>
        <mxCell id="wu-KXamo82yyalRBKZPA-7" value="&lt;div&gt;&lt;font style=&quot;font-size: 14px;&quot;&gt;&lt;br&gt;&lt;/font&gt;&lt;/div&gt;&lt;font style=&quot;font-size: 14px;&quot;&gt;&lt;div&gt;&lt;font style=&quot;font-size: 14px;&quot;&gt;&lt;br&gt;&lt;/font&gt;&lt;/div&gt;2 Core&lt;/font&gt;&lt;div&gt;&lt;font size=&quot;3&quot;&gt;4GB RAM&lt;/font&gt;&lt;/div&gt;&lt;div&gt;&lt;font size=&quot;3&quot;&gt;SUSE Linux Enterprise Server 12 (x86_64)&lt;/font&gt;&lt;/div&gt;&lt;div&gt;&lt;br&gt;&lt;div&gt;&lt;br&gt;&lt;/div&gt;&lt;/div&gt;" style="rounded=1;whiteSpace=wrap;html=1;" parent="1" vertex="1">
          <mxGeometry x="541" y="265" width="140" height="110" as="geometry" />
        </mxCell>
        <mxCell id="wu-KXamo82yyalRBKZPA-8" value="" style="curved=1;endArrow=classic;html=1;rounded=0;exitX=0.016;exitY=0.496;exitDx=0;exitDy=0;exitPerimeter=0;" parent="1" source="wu-KXamo82yyalRBKZPA-5" target="wu-KXamo82yyalRBKZPA-7" edge="1">
          <mxGeometry width="50" height="50" relative="1" as="geometry">
            <mxPoint x="791" y="250" as="sourcePoint" />
            <mxPoint x="741" y="300" as="targetPoint" />
            <Array as="points">
              <mxPoint x="741" y="250" />
              <mxPoint x="791" y="300" />
            </Array>
          </mxGeometry>
        </mxCell>
        <mxCell id="wu-KXamo82yyalRBKZPA-9" value="Source" style="edgeLabel;resizable=0;html=1;;align=left;verticalAlign=bottom;" parent="1" connectable="0" vertex="1">
          <mxGeometry x="741" y="425" as="geometry" />
        </mxCell>
        <mxCell id="wu-KXamo82yyalRBKZPA-10" value="&lt;div&gt;&lt;br&gt;&lt;/div&gt;&lt;div&gt;&lt;br&gt;&lt;/div&gt;&lt;div&gt;&lt;br&gt;&lt;/div&gt;&lt;div&gt;&lt;br&gt;&lt;/div&gt;&lt;div&gt;&lt;br&gt;&lt;/div&gt;&lt;div&gt;&lt;br&gt;&lt;/div&gt;&lt;div&gt;&lt;br&gt;&lt;/div&gt;&lt;div&gt;&lt;br&gt;&lt;/div&gt;&lt;div&gt;&lt;br&gt;&lt;/div&gt;&lt;div&gt;&lt;br&gt;&lt;/div&gt;&lt;div&gt;&lt;br&gt;&lt;/div&gt;&lt;div&gt;&lt;span style=&quot;background-color: transparent; color: light-dark(rgb(0, 0, 0), rgb(255, 255, 255));&quot;&gt;&amp;nbsp; &amp;nbsp;&lt;/span&gt;&lt;span style=&quot;background-color: transparent; color: light-dark(rgb(0, 0, 0), rgb(255, 255, 255)); white-space: pre;&quot;&gt;&#x9;&lt;/span&gt;&lt;span style=&quot;background-color: transparent; color: light-dark(rgb(0, 0, 0), rgb(255, 255, 255)); white-space: pre;&quot;&gt;&#x9;&lt;/span&gt;&lt;span style=&quot;background-color: transparent; color: light-dark(rgb(0, 0, 0), rgb(255, 255, 255)); white-space: pre;&quot;&gt;&#x9;&lt;/span&gt;&lt;span style=&quot;background-color: transparent; color: light-dark(rgb(0, 0, 0), rgb(255, 255, 255)); white-space: pre;&quot;&gt;&#x9;&lt;/span&gt;&lt;font style=&quot;background-color: transparent; color: light-dark(rgb(0, 0, 0), rgb(255, 255, 255)); font-size: 14px;&quot;&gt;&lt;span style=&quot;white-space: pre;&quot;&gt;&#x9;&lt;/span&gt;&amp;nbsp; &amp;nbsp; &amp;nbsp; &amp;nbsp; &amp;nbsp; &amp;nbsp; &amp;nbsp; &amp;nbsp; &amp;nbsp; &amp;nbsp; &amp;nbsp; &amp;nbsp; &amp;nbsp; &amp;nbsp; &amp;nbsp; &amp;nbsp; &amp;nbsp; &amp;nbsp; &amp;nbsp; &amp;nbsp; &amp;nbsp; &amp;nbsp; &amp;nbsp; &amp;nbsp; &amp;nbsp; &amp;nbsp; &amp;nbsp; &amp;nbsp; &amp;nbsp; &amp;nbsp; &amp;nbsp; &amp;nbsp; &amp;nbsp; &amp;nbsp; &amp;nbsp; &amp;nbsp; &amp;nbsp; &amp;nbsp; &amp;nbsp; &amp;nbsp; &amp;nbsp; &amp;nbsp; &amp;nbsp; &amp;nbsp; &amp;nbsp; &amp;nbsp; &amp;nbsp; &amp;nbsp; &amp;nbsp; &amp;nbsp;&amp;nbsp;&lt;/font&gt;&lt;font style=&quot;background-color: transparent; color: light-dark(rgb(0, 0, 0), rgb(255, 255, 255)); font-size: 16px;&quot;&gt;chacarasaojose&lt;/font&gt;&lt;/div&gt;&lt;div&gt;&lt;/div&gt;&lt;div&gt;&lt;span style=&quot;font-size: medium; background-color: transparent; color: light-dark(rgb(0, 0, 0), rgb(255, 255, 255)); white-space: pre;&quot;&gt;&#x9;&lt;/span&gt;&lt;span style=&quot;font-size: medium; background-color: transparent; color: light-dark(rgb(0, 0, 0), rgb(255, 255, 255)); white-space: pre;&quot;&gt;&#x9;&lt;/span&gt;&lt;span style=&quot;font-size: medium; background-color: transparent; color: light-dark(rgb(0, 0, 0), rgb(255, 255, 255));&quot;&gt;&amp;nbsp; &amp;nbsp; &amp;nbsp;10.200.77.24&lt;/span&gt;&lt;/div&gt;" style="rounded=1;whiteSpace=wrap;html=1;" parent="1" vertex="1">
          <mxGeometry x="761" y="-307" width="209" height="240" as="geometry" />
        </mxCell>
        <mxCell id="wu-KXamo82yyalRBKZPA-11" value="" style="verticalLabelPosition=bottom;aspect=fixed;html=1;verticalAlign=top;strokeColor=none;shape=mxgraph.citrix.tower_server;rounded=0;shadow=0;comic=0;fontFamily=Verdana;" parent="1" vertex="1">
          <mxGeometry x="851" y="-271" width="99.41" height="130" as="geometry" />
        </mxCell>
        <mxCell id="wu-KXamo82yyalRBKZPA-12" value="&lt;font style=&quot;font-size: 18px;&quot;&gt;&lt;b&gt;IHS&amp;nbsp; &amp;nbsp; Homologação&lt;/b&gt;&lt;/font&gt;" style="rounded=1;whiteSpace=wrap;html=1;" parent="1" vertex="1">
          <mxGeometry x="530" y="-291" width="170" height="60" as="geometry" />
        </mxCell>
        <mxCell id="wu-KXamo82yyalRBKZPA-13" value="&lt;div&gt;&lt;font style=&quot;font-size: 14px;&quot;&gt;&lt;br&gt;&lt;/font&gt;&lt;/div&gt;&lt;font style=&quot;font-size: 14px;&quot;&gt;&lt;div&gt;&lt;font style=&quot;font-size: 14px;&quot;&gt;&lt;br&gt;&lt;/font&gt;&lt;/div&gt;1 Core&lt;/font&gt;&lt;div&gt;&lt;font size=&quot;3&quot;&gt;2GB RAM&lt;/font&gt;&lt;/div&gt;&lt;div&gt;&lt;font size=&quot;3&quot;&gt;Red Hat Enterprise Linux 9.3 (Plow)&lt;/font&gt;&lt;br&gt;&lt;/div&gt;&lt;div&gt;&lt;font size=&quot;3&quot;&gt;&lt;br&gt;&lt;/font&gt;&lt;/div&gt;&lt;div&gt;&lt;font size=&quot;3&quot;&gt;&lt;br&gt;&lt;/font&gt;&lt;/div&gt;&lt;div&gt;&lt;div&gt;&lt;br&gt;&lt;/div&gt;&lt;/div&gt;" style="rounded=1;whiteSpace=wrap;html=1;" parent="1" vertex="1">
          <mxGeometry x="541" y="-211" width="140" height="110" as="geometry" />
        </mxCell>
        <mxCell id="wu-KXamo82yyalRBKZPA-14" value="" style="curved=1;endArrow=classic;html=1;rounded=0;exitX=0.016;exitY=0.496;exitDx=0;exitDy=0;exitPerimeter=0;" parent="1" source="wu-KXamo82yyalRBKZPA-11" target="wu-KXamo82yyalRBKZPA-13" edge="1">
          <mxGeometry width="50" height="50" relative="1" as="geometry">
            <mxPoint x="791" y="-226" as="sourcePoint" />
            <mxPoint x="741" y="-176" as="targetPoint" />
            <Array as="points">
              <mxPoint x="741" y="-226" />
              <mxPoint x="791" y="-176" />
            </Array>
          </mxGeometry>
        </mxCell>
        <mxCell id="wu-KXamo82yyalRBKZPA-15" value="Source" style="edgeLabel;resizable=0;html=1;;align=left;verticalAlign=bottom;" parent="1" connectable="0" vertex="1">
          <mxGeometry x="566" y="-51" as="geometry" />
        </mxCell>
        <mxCell id="U17bMtROvEgXy0OD92yg-2" value="" style="rounded=1;whiteSpace=wrap;html=1;" vertex="1" parent="1">
          <mxGeometry x="245" y="578" width="520" height="270" as="geometry" />
        </mxCell>
        <mxCell id="U17bMtROvEgXy0OD92yg-3" value="&lt;div&gt;&lt;br&gt;&lt;/div&gt;&lt;div&gt;&lt;br&gt;&lt;/div&gt;&lt;div&gt;&lt;br&gt;&lt;/div&gt;&lt;div&gt;&lt;br&gt;&lt;/div&gt;&lt;div&gt;&lt;br&gt;&lt;/div&gt;&lt;div&gt;&lt;br&gt;&lt;/div&gt;&lt;div&gt;&lt;br&gt;&lt;/div&gt;&lt;div&gt;&lt;br&gt;&lt;/div&gt;&lt;div&gt;&lt;br&gt;&lt;/div&gt;&lt;div&gt;&lt;div&gt;&lt;font style=&quot;background-color: transparent; color: light-dark(rgb(0, 0, 0), rgb(255, 255, 255)); font-size: 16px;&quot;&gt;&amp;nbsp; &amp;nbsp; &amp;nbsp; &amp;nbsp; &amp;nbsp; &amp;nbsp; &amp;nbsp; &amp;nbsp; &amp;nbsp; &amp;nbsp; &amp;nbsp; &amp;nbsp; &amp;nbsp; &amp;nbsp; &amp;nbsp; &amp;nbsp;&amp;nbsp;&lt;/font&gt;&lt;/div&gt;&lt;div&gt;&lt;font style=&quot;background-color: transparent; color: light-dark(rgb(0, 0, 0), rgb(255, 255, 255)); font-size: 16px;&quot;&gt;&amp;nbsp; &amp;nbsp; &amp;nbsp; &amp;nbsp; &amp;nbsp; &amp;nbsp; &amp;nbsp; &amp;nbsp; &amp;nbsp; &amp;nbsp; &amp;nbsp; &amp;nbsp; &amp;nbsp; &amp;nbsp; &amp;nbsp; &amp;nbsp; &amp;nbsp; &amp;nbsp; &amp;nbsp; &amp;nbsp; &amp;nbsp; &amp;nbsp; &amp;nbsp; &amp;nbsp; &amp;nbsp;&lt;/font&gt;&lt;/div&gt;&lt;div&gt;&lt;font style=&quot;background-color: transparent; color: light-dark(rgb(0, 0, 0), rgb(255, 255, 255)); font-size: 16px;&quot;&gt;&amp;nbsp; &amp;nbsp; &amp;nbsp; &amp;nbsp; &amp;nbsp; &amp;nbsp; &amp;nbsp; &amp;nbsp;gc5000917-sql01&amp;nbsp; &amp;nbsp; &amp;nbsp; &amp;nbsp; &amp;nbsp; &amp;nbsp; &amp;nbsp; &amp;nbsp; &amp;nbsp; &amp;nbsp; &amp;nbsp; &amp;nbsp; &amp;nbsp;10.153.26.3&lt;/font&gt;&lt;br&gt;&lt;/div&gt;&lt;/div&gt;" style="rounded=1;whiteSpace=wrap;html=1;" vertex="1" parent="1">
          <mxGeometry x="525" y="592" width="200" height="240" as="geometry" />
        </mxCell>
        <mxCell id="U17bMtROvEgXy0OD92yg-4" value="" style="verticalLabelPosition=bottom;aspect=fixed;html=1;verticalAlign=top;strokeColor=none;shape=mxgraph.citrix.tower_server;rounded=0;shadow=0;comic=0;fontFamily=Verdana;" vertex="1" parent="1">
          <mxGeometry x="615" y="628" width="99.41" height="130" as="geometry" />
        </mxCell>
        <mxCell id="U17bMtROvEgXy0OD92yg-5" value="&lt;font style=&quot;font-size: 18px;&quot;&gt;&lt;b&gt;Database SQL Homologação&lt;/b&gt;&lt;/font&gt;" style="rounded=1;whiteSpace=wrap;html=1;" vertex="1" parent="1">
          <mxGeometry x="295" y="608" width="169" height="60" as="geometry" />
        </mxCell>
        <mxCell id="U17bMtROvEgXy0OD92yg-6" value="&lt;div&gt;&lt;font style=&quot;font-size: 14px;&quot;&gt;&lt;br&gt;&lt;/font&gt;&lt;/div&gt;&lt;font style=&quot;font-size: 14px;&quot;&gt;&lt;div&gt;&lt;font style=&quot;font-size: 14px;&quot;&gt;&lt;br&gt;&lt;/font&gt;&lt;/div&gt;1 Core&lt;/font&gt;&lt;div&gt;&lt;font size=&quot;3&quot;&gt;4GB RAM&lt;/font&gt;&lt;/div&gt;&lt;div&gt;&lt;font size=&quot;3&quot;&gt;SQL Server 2019 Standard&amp;nbsp;&lt;/font&gt;&lt;/div&gt;&lt;div&gt;&lt;br&gt;&lt;div&gt;&lt;br&gt;&lt;/div&gt;&lt;/div&gt;" style="rounded=1;whiteSpace=wrap;html=1;" vertex="1" parent="1">
          <mxGeometry x="305" y="688" width="140" height="110" as="geometry" />
        </mxCell>
        <mxCell id="U17bMtROvEgXy0OD92yg-7" value="" style="curved=1;endArrow=classic;html=1;rounded=0;exitX=0.016;exitY=0.496;exitDx=0;exitDy=0;exitPerimeter=0;" edge="1" parent="1" source="U17bMtROvEgXy0OD92yg-4" target="U17bMtROvEgXy0OD92yg-6">
          <mxGeometry width="50" height="50" relative="1" as="geometry">
            <mxPoint x="555" y="673" as="sourcePoint" />
            <mxPoint x="505" y="723" as="targetPoint" />
            <Array as="points">
              <mxPoint x="505" y="673" />
              <mxPoint x="555" y="723" />
            </Array>
          </mxGeometry>
        </mxCell>
        <mxCell id="U17bMtROvEgXy0OD92yg-8" value="Source" style="edgeLabel;resizable=0;html=1;;align=left;verticalAlign=bottom;" connectable="0" vertex="1" parent="1">
          <mxGeometry x="505" y="848" as="geometry" />
        </mxCell>
        <mxCell id="U17bMtROvEgXy0OD92yg-9" value="" style="endArrow=classic;html=1;rounded=0;exitX=0.5;exitY=1;exitDx=0;exitDy=0;entryX=0.5;entryY=0;entryDx=0;entryDy=0;" edge="1" parent="1" source="aAT7dS_sUtaWbR4hFf62-24" target="U17bMtROvEgXy0OD92yg-2">
          <mxGeometry width="50" height="50" relative="1" as="geometry">
            <mxPoint x="1020" y="302" as="sourcePoint" />
            <mxPoint x="1640" y="304" as="targetPoint" />
          </mxGeometry>
        </mxCell>
        <mxCell id="U17bMtROvEgXy0OD92yg-11" value="" style="endArrow=classic;html=1;rounded=0;exitX=0;exitY=0.5;exitDx=0;exitDy=0;entryX=1;entryY=0.5;entryDx=0;entryDy=0;" edge="1" parent="1" source="XWSbF_imXP0iLrR8o-j1-30" target="U17bMtROvEgXy0OD92yg-2">
          <mxGeometry width="50" height="50" relative="1" as="geometry">
            <mxPoint x="1524" y="339" as="sourcePoint" />
            <mxPoint x="1520" y="495" as="targetPoint" />
          </mxGeometry>
        </mxCell>
        <mxCell id="U17bMtROvEgXy0OD92yg-12" value="" style="endArrow=classic;html=1;rounded=0;exitX=0.5;exitY=1;exitDx=0;exitDy=0;entryX=0.5;entryY=0;entryDx=0;entryDy=0;" edge="1" parent="1" source="XWSbF_imXP0iLrR8o-j1-30" target="XWSbF_imXP0iLrR8o-j1-15">
          <mxGeometry width="50" height="50" relative="1" as="geometry">
            <mxPoint x="1840" y="460" as="sourcePoint" />
            <mxPoint x="971" y="881" as="targetPoint" />
          </mxGeometry>
        </mxCell>
        <mxCell id="U17bMtROvEgXy0OD92yg-13" value="" style="endArrow=classic;html=1;rounded=0;exitX=0;exitY=0.5;exitDx=0;exitDy=0;entryX=0.75;entryY=1;entryDx=0;entryDy=0;" edge="1" parent="1" source="XWSbF_imXP0iLrR8o-j1-30" target="aAT7dS_sUtaWbR4hFf62-11">
          <mxGeometry width="50" height="50" relative="1" as="geometry">
            <mxPoint x="1630" y="710" as="sourcePoint" />
            <mxPoint x="765" y="1129" as="targetPoint" />
          </mxGeometry>
        </mxCell>
        <mxCell id="U17bMtROvEgXy0OD92yg-14" value="&lt;font style=&quot;font-size: 24px;&quot;&gt;&lt;font style=&quot;&quot;&gt;http /ht&lt;/font&gt;tps&lt;/font&gt;" style="edgeLabel;resizable=0;html=1;;align=center;verticalAlign=middle;rotation=20;" connectable="0" vertex="1" parent="1">
          <mxGeometry x="1243.9972372619295" y="133.00483288049986" as="geometry">
            <mxPoint x="-15.744294044725049" y="5.110499489603282" as="offset" />
          </mxGeometry>
        </mxCell>
        <mxCell id="U17bMtROvEgXy0OD92yg-15" value="" style="endArrow=classic;html=1;rounded=0;entryX=0.75;entryY=1;entryDx=0;entryDy=0;exitX=0.75;exitY=0;exitDx=0;exitDy=0;" edge="1" parent="1" source="XWSbF_imXP0iLrR8o-j1-15" target="XWSbF_imXP0iLrR8o-j1-30">
          <mxGeometry width="50" height="50" relative="1" as="geometry">
            <mxPoint x="2000" y="552" as="sourcePoint" />
            <mxPoint x="2000" y="450" as="targetPoint" />
          </mxGeometry>
        </mxCell>
      </root>
    </mxGraphModel>
  </diagram>
</mxfile>
